<?xml version="1.0" encoding="utf-8"?>
<!-- Generator: Adobe Illustrator 24.3.0, SVG Export Plug-In . SVG Version: 6.00 Build 0)  -->
<svg version="1.1" id="Livello_1" xmlns="http://www.w3.org/2000/svg" xmlns:xlink="http://www.w3.org/1999/xlink" x="0px" y="0px"
	 viewBox="0 0 89.4 49.9" style="enable-background:new 0 0 89.4 49.9;" xml:space="preserve">
<g>
	<path d="M21.7,18.9c-0.1-1.3-0.5-2.6-1-3.9s-1.1-2.6-1.9-3.8c-0.7-1.2-1.2-2.4-1.3-3.5c-0.2-1.2,0.1-2.4,0.9-3.7
		c0.3-0.4,0.6-0.9,1-1.3s0.9-0.7,1.3-0.9c0.5-0.2,1-0.4,1.5-0.4c0.5-0.1,1,0,1.5,0.2c0.8,0.4,1.4,1,1.6,1.7c0.2,0.7,0.2,1.5-0.1,2.3
		c-0.2,0.5-0.4,1-0.8,1.4c-0.3,0.4-0.7,0.8-1.2,1c-0.5,0.2-0.9,0.4-1.5,0.5c-0.5,0.1-1,0-1.6-0.1c-0.3,0.6-0.3,1-0.2,1.5
		c0.1,0.4,0.4,0.8,0.6,1c0.5,0.4,1.2,0.6,1.9,0.6c0.7,0,1.4-0.1,2-0.4c0.8-0.4,1.4-0.9,2-1.7s1-1.7,1.2-2.8c0.2-0.8,0.2-1.5,0-2.3
		c-0.1-0.7-0.4-1.4-0.8-1.9c-0.4-0.6-0.9-1.1-1.5-1.5s-1.3-0.7-2-0.8C22.1-0.1,21-0.1,20,0.3c-1,0.3-1.9,0.8-2.6,1.5
		s-1.3,1.5-1.8,2.5s-0.8,2-0.9,3c-0.2,1-0.2,2.1,0,3.2s0.5,2,1.1,2.9s1.1,1.8,1.6,2.8c0.4,1,0.8,2,0.9,3c0.2,1,0.2,2.1,0.1,3.1
		s-0.5,2.1-1,3s-1.3,1.7-2.3,2.4c-1,0.7-2.1,1.2-3.2,1.4c-1.2,0.2-2.3,0.2-3.4-0.1c-1.1-0.3-2-1-2.7-2.1c-0.5-0.8-0.7-1.6-0.7-2.6
		c0-0.9,0.1-1.8,0.4-2.6c0.3-0.8,0.7-1.5,1.1-2.2c0.5-0.6,0.9-1.2,1.5-1.6c0.9-0.8,1.9-1.3,2.8-1.6c1-0.3,1.9-0.3,2.7,0
		c0.8,0.3,1.2,0.2,1.4-0.2c0.1-0.4-0.2-1-1.1-1.9c-0.3-0.3-0.7-0.6-1.2-0.8S11.5,13,10.8,13c-0.8,0-1.6,0.2-2.4,0.6
		C7.5,14,6.8,14.5,6,15.2c-1.2,1.1-2,2.5-2.5,4.1S2.9,22.4,3.2,24c0.3,1.5,0.9,2.9,1.9,4.1s2.4,2,4.1,2.3c1,0.2,1.9,0.3,2.9,0.2
		c1-0.1,1.9-0.3,2.8-0.6c0.9-0.3,1.7-0.8,2.5-1.3c0.8-0.6,1.5-1.3,2.1-2.1c0.9-1.3,1.6-2.5,1.9-3.9C21.7,21.6,21.8,20.3,21.7,18.9z"
		/>
	<path d="M88.2,19.7c-0.7,1.5-1.3,2.6-1.9,3.5c-0.6,0.9-1.2,1.3-1.7,1.3c-0.3,0-0.5-0.2-0.4-0.7s0.4-1.1,0.8-2.1l2-4.5
		c0.2-0.5,0.2-0.9,0-1.4c-0.2-0.5-0.6-0.9-1.1-1.1c-0.1-0.1-0.3-0.1-0.4-0.2c-0.2-0.1-0.3-0.2-0.4-0.3C85,14.1,85,14,85,13.8
		s0.1-0.3,0.4-0.6c0.5-0.5,0.8-1,0.7-1.5c0-0.5-0.2-0.8-0.5-1s-0.7-0.3-1.2-0.2s-0.9,0.4-1.2,1c-0.3,0.5-0.5,1-0.5,1.6
		c0,0.5,0.1,1,0.3,1.5c0,0-2.3,4.9-2.6,5.5c-0.6,0.9-0.9,1.3-1.5,1.9c-0.7,0.7-1.4,1.2-2.1,1.7c-0.7,0.4-1.4,0.7-2.1,0.9
		c-0.7,0.1-1.2,0.1-1.7-0.1s-0.8-0.7-0.9-1.4c-0.1-0.7,0-1.4,0.3-2.3c0.2,0.5,0.6,0.8,1.1,0.9s1.1,0.1,1.7,0c0.7-0.2,1.3-0.5,2-1
		s1.3-1.2,1.9-2c0.4-0.6,0.7-1.2,0.9-1.8c0.2-0.6,0.2-1.2,0.2-1.7c0-0.5-0.2-1-0.4-1.4s-0.5-0.7-0.9-0.9c-0.5-0.2-1.1-0.3-1.8-0.2
		s-1.5,0.4-2.4,0.9c-0.8,0.5-1.7,1.3-2.6,2.3c-0.9,1-1.7,2.3-2.5,3.8c-0.1,0.2-0.2,0.4-0.3,0.6c-0.6,1.3-1.3,2.3-2,3
		c-0.8,0.8-1.4,1.2-1.9,1.2c-0.3,0-0.6-0.1-0.8-0.3c-0.2-0.2-0.5-0.5-0.7-0.8c-0.2-0.3-0.4-0.7-0.5-1c-0.1-0.4-0.2-0.8-0.2-1.1
		c0.8,0,1.7-0.2,2.5-0.6s1.5-0.9,2.2-1.5c0.6-0.6,1.2-1.3,1.6-1.9c0.4-0.7,0.7-1.3,0.8-1.9c0.1-0.6,0-1.1-0.3-1.5s-0.8-0.6-1.6-0.6
		c-0.6,0-1.3,0.2-2.1,0.7c3.1-3.8,5.1-6.9,6-9.3c0.9-2.4,1-3.9,0-4.5c-0.6-0.4-1.3-0.3-2.2,0.2c-0.8,0.5-1.8,1.3-2.8,2.4
		c-1,1.2-2.1,2.6-3.2,4.4C63,9,61.8,11,60.6,13.4c0,0-0.1,0.2-0.3,0.6c-0.2,0.4-0.5,0.9-0.8,1.6c-0.3,0.7-0.7,1.4-1.1,2.2
		c-0.4,0.8-0.8,1.7-1.2,2.5c-0.1,0.3-0.3,0.6-0.4,0.8c-0.5,0.9-0.9,1.7-1.4,2.3c-0.6,0.9-1.2,1.3-1.7,1.3c-0.3,0-0.5-0.2-0.4-0.7
		s0.4-1.1,0.8-2.1l0.1-0.2l4-8.5H55l-0.2,0.4c-0.1-0.3-0.4-0.6-0.7-0.7c-0.5-0.2-1-0.2-1.7-0.1c-0.7,0.1-1.3,0.5-2.1,1
		c-0.7,0.6-1.5,1.3-2.3,2.3s-1.6,2.3-2.3,3.8c0,0.1-0.1,0.1-0.1,0.2c-0.4,0.7-0.9,1.4-1.5,2c-0.7,0.7-1.4,1.2-2.1,1.7
		c-0.7,0.4-1.4,0.7-2.1,0.9c-0.7,0.1-1.2,0.1-1.7-0.1s-0.8-0.7-0.9-1.4c-0.1-0.7,0-1.4,0.3-2.3c0.2,0.5,0.6,0.8,1.1,0.9
		s1.1,0.1,1.7,0c0.7-0.2,1.3-0.5,2-1s1.3-1.2,1.9-2c0.4-0.6,0.7-1.2,0.9-1.8c0.2-0.6,0.2-1.2,0.2-1.7c0-0.5-0.2-1-0.4-1.4
		c-0.2-0.4-0.5-0.7-0.9-0.9c-0.5-0.2-1.1-0.3-1.8-0.2c-0.7,0.1-1.5,0.4-2.4,0.9c-0.8,0.5-1.7,1.3-2.6,2.3s-1.7,2.3-2.5,3.8
		c-0.1,0.2-0.2,0.4-0.3,0.6c-0.6,1.3-1.2,2.3-1.9,3.1c-0.7,0.9-1.3,1.3-1.8,1.3c-0.2,0-0.2-0.1-0.2-0.3c0-0.2,0.2-0.6,0.4-1.2
		c0.3-0.6,0.7-1.4,1.3-2.4c0.6-1,1.3-2.4,2.3-4.1c0.3-0.5,0.5-1,0.5-1.4c0.1-0.4,0-0.8-0.1-1.2c-0.1-0.3-0.3-0.6-0.5-0.8
		c-0.3-0.2-0.5-0.3-0.9-0.3c-0.7,0-1.5,0.3-2.4,0.9c0.3,0.6-0.7,1.4-1.7,2.6l1.7-3.5H28l-6.6,13.8h3.3l1.1-2.2
		c0.6-1.2,1.3-2.4,2-3.5s1.4-2.1,2.1-3s1.3-1.5,1.8-2c0.5-0.5,0.9-0.8,1.2-0.8c0.3,0,0.3,0.3,0.1,0.8c-0.2,0.6-0.7,1.3-1.2,2.1
		c-1.1,1.6-1.9,3-2.3,4.1c-0.5,1.1-0.7,2-0.7,2.7s0.2,1.2,0.5,1.5c0.4,0.3,0.8,0.4,1.4,0.4c1.2,0,2.3-0.6,3.3-1.7
		c0.4-0.4,0.7-0.9,1.1-1.4l0,0c0.1,0.6,0.2,1.2,0.5,1.7s0.6,0.8,1,1.1c0.8,0.5,1.7,0.7,2.7,0.6s2-0.5,3-1c1-0.6,2-1.3,2.9-2.3
		c0.1-0.1,0.2-0.2,0.3-0.3c0,0.2,0,0.3,0,0.5c-0.1,1.3,0.3,2.1,0.9,2.6c0.7,0.4,1.4,0.5,2.2,0.1c0.8-0.3,1.6-0.9,2.4-1.6
		c0.1,1.2,0.8,1.8,2,1.8c0.8,0,1.5-0.2,2.1-0.7c-0.1,0.2-0.2,0.4-0.3,0.5H58l0.7-1.5c0.3-0.7,0.7-1.4,1.1-2c0.4-0.7,0.8-1.3,1.3-2
		c0,0.7,0,1.4,0.2,2.1s0.4,1.3,0.7,1.8c0.3,0.5,0.6,0.9,1,1.2c0.4,0.3,0.8,0.5,1.3,0.5c1.4,0,2.6-0.6,3.7-1.7
		c0.4-0.4,0.8-0.9,1.2-1.4l0,0c0.1,0.6,0.2,1.2,0.5,1.7c0.2,0.5,0.6,0.8,1,1.1c0.8,0.5,1.7,0.7,2.7,0.6s2-0.5,3-1
		c1-0.6,2-1.3,2.9-2.3c0.8-0.9,1.4-1.6,2.1-2.7l0.3-0.5c0.5-0.7,2.5-5.2,2.5-5.2c0.2,0.2,0.4,0.5,0.4,0.7c0,0.3-0.1,0.6-0.2,0.8
		c-0.2,0.4-0.4,0.7-0.6,1c-0.2,0.3-0.3,0.6-0.5,0.9s-0.4,0.7-0.6,1.1c-0.2,0.4-0.4,0.9-0.7,1.5c-0.8,1.7-1.1,3-0.8,3.9
		c0.2,0.9,0.9,1.4,2,1.4c1.2,0,2.3-0.6,3.3-1.7s2-2.7,2.9-4.7L88.2,19.7z M73.4,18.8c0.3-0.7,0.7-1.3,1.2-2s1-1.2,1.5-1.7
		c0.5-0.5,1-0.8,1.5-1s0.9-0.2,1.2,0c0.2,0.1,0.2,0.5,0,1.2c-0.2,0.6-0.7,1.3-1.3,2.1c-0.5,0.6-1,1-1.6,1.4c-0.5,0.4-1,0.6-1.4,0.7
		s-0.7,0.2-0.9,0.1C73.3,19.4,73.2,19.2,73.4,18.8z M39.3,18.8c0.3-0.7,0.7-1.3,1.2-2s1-1.2,1.5-1.7c0.5-0.5,1-0.8,1.5-1
		s0.9-0.2,1.2,0c0.2,0.1,0.2,0.5,0,1.2c-0.2,0.6-0.7,1.3-1.3,2.1c-0.5,0.6-1,1-1.6,1.4c-0.5,0.4-1,0.6-1.4,0.7s-0.7,0.2-0.9,0.1
		C39.2,19.4,39.1,19.2,39.3,18.8z M53.2,19.3c-0.3,0.7-0.7,1.4-1.1,2c-0.4,0.7-0.8,1.2-1.2,1.7c-0.4,0.5-0.8,0.9-1.1,1.1
		c-0.3,0.3-0.6,0.3-0.8,0.2c-0.2-0.1-0.3-0.3-0.3-0.6c0-0.3,0-0.8,0.1-1.3s0.3-1,0.5-1.6s0.5-1.2,0.7-1.8c0.3-0.7,0.7-1.3,1.1-2
		s0.8-1.2,1.2-1.7c0.4-0.5,0.8-0.8,1.1-1.1c0.4-0.2,0.6-0.3,0.8-0.2c0.2,0.1,0.4,0.3,0.4,0.6s0,0.7-0.2,1.1c-0.1,0.5-0.3,1-0.6,1.6
		C53.7,18,53.5,18.6,53.2,19.3z M64.1,13.9c0.9-1.8,1.9-3.4,2.7-4.8c0.9-1.4,1.7-2.6,2.4-3.5s1.3-1.7,1.7-2.1
		c0.5-0.5,0.8-0.7,0.9-0.6C72,3,71.9,3.5,71.4,4.4c-0.4,0.8-1.1,1.9-1.9,3.1c-0.8,1.3-1.8,2.6-2.9,4.2c-1.1,1.5-2.3,3-3.5,4.5
		L64.1,13.9z M61.9,20.1c0.5-0.7,1-1.4,1.6-2c0.5-0.6,1-1.1,1.4-1.6c0.4-0.4,0.8-0.8,1.2-1c0.4-0.2,0.6-0.4,0.8-0.4
		c0.2,0,0.3,0.1,0.3,0.4c0,0.2-0.1,0.5-0.4,0.9c-0.2,0.4-0.5,0.8-0.8,1.2c-0.4,0.4-0.8,0.8-1.2,1.2c-0.4,0.4-0.9,0.7-1.4,1
		C62.9,19.9,62.4,20.1,61.9,20.1z"/>
	<path d="M4.1,8.1C4.4,7.7,4.6,7.3,4.9,7c0.2-0.3,0.5-0.6,0.6-0.7C5.7,6.1,5.8,6,5.9,6C6,6,6,6.1,5.9,6.3C5.8,6.5,5.7,6.7,5.5,7
		C5.1,7.6,4.9,8,4.7,8.4C4.5,8.8,4.4,9.1,4.4,9.3s0,0.4,0.2,0.5C4.7,9.9,4.9,10,5.1,10c0.4,0,0.8-0.2,1.1-0.6
		c0.1-0.1,0.3-0.3,0.4-0.5l0,0c0,0.2,0.1,0.4,0.2,0.6C6.9,9.7,7,9.8,7.1,9.9c0.3,0.2,0.6,0.2,0.9,0.2c0.3,0,0.7-0.2,1-0.4
		c0.4-0.2,0.7-0.5,1-0.8c0.5-0.3,0.7-0.7,1-1.1l-0.3-0.3c-0.2,0.3-0.3,0.5-0.6,0.8C9.9,8.5,9.6,8.7,9.4,8.9C9.2,9.1,8.9,9.2,8.7,9.2
		c-0.2,0.1-0.4,0-0.6,0C7.9,9.1,7.8,9,7.8,8.7c0-0.2,0-0.5,0.1-0.8C8,8.1,8.1,8.2,8.3,8.2c0.2,0.1,0.4,0,0.6,0
		C9.1,8.1,9.4,8,9.6,7.8c0.2-0.2,0.5-0.4,0.7-0.7c0.1-0.2,0.2-0.4,0.2-0.7c0.1-0.2,0.1-0.4,0.1-0.6s-0.1-0.3-0.1-0.5
		c-0.1-0.1-0.2-0.2-0.3-0.3C10,4.9,9.8,4.9,9.6,4.9C9.3,4.9,9.1,5,8.8,5.2C8.5,5.4,8.2,5.6,7.9,6C7.6,6.3,7.3,6.8,7,7.3
		c0,0.1-0.1,0.1-0.1,0.2C6.7,7.9,6.5,8.3,6.3,8.6C6.1,8.9,5.8,9.1,5.7,9.1S5.6,9.1,5.6,9s0.1-0.2,0.2-0.4C5.9,8.4,6,8.1,6.2,7.8
		C6.4,7.4,6.7,7,7,6.4c0.1-0.2,0.2-0.3,0.2-0.5s0-0.3,0-0.4S7.1,5.3,7,5.2C6.9,5.1,6.8,5.1,6.7,5.1s-0.2,0-0.3,0
		c1-1.3,1.7-2.3,2-3.1c0.3-0.8,0.3-1.3,0-1.5c-0.4,0-0.6,0-0.9,0.1C7.2,0.8,6.9,1,6.5,1.4C6.2,1.8,5.8,2.3,5.4,2.9
		C5,3.5,4.6,4.2,4.2,5c0,0,0,0.1-0.1,0.2S3.9,5.5,3.8,5.8C3.7,6,3.6,6.3,3.4,6.6C3.3,6.9,3.1,7.2,3,7.5l0,0C2.9,7.7,2.8,7.9,2.7,8
		C2.5,8.2,2.4,8.4,2.2,8.5S1.9,8.7,1.7,8.8C1.6,8.9,1.4,8.9,1.3,8.9c-0.1,0-0.2-0.1-0.2-0.2c0-0.2,0-0.4,0.2-0.7l1.2-2.4h1l0.2-0.5
		h-1l1.2-2.5L2.6,2.9L1.5,5.2H0.9L0.8,5.6h0.6L0.2,8.2C0.1,8.5,0,8.8,0,9s0,0.4,0.1,0.6C0.2,9.8,0.3,9.9,0.4,10
		c0.1,0.1,0.3,0.1,0.5,0.1S1.3,10,1.6,9.9c0.2-0.1,0.5-0.2,0.7-0.4l0,0C2.2,9.7,2.1,9.9,2,10.1h1.1l0.3-0.6C3.6,8.9,3.8,8.5,4.1,8.1
		z M8.1,7.2C8.2,7,8.3,6.7,8.5,6.5C8.7,6.3,8.8,6.1,9,5.9c0.2-0.2,0.4-0.3,0.5-0.4c0.2-0.1,0.3-0.1,0.4,0c0.1,0,0.1,0.2,0,0.4
		c0,0.3-0.2,0.5-0.4,0.7S9.1,6.9,9,7.1C8.8,7.2,8.7,7.3,8.5,7.4c-0.1,0.1-0.2,0.1-0.3,0C8.1,7.4,8.1,7.3,8.1,7.2z M5.2,5.5
		c0.3-0.6,0.6-1.2,0.9-1.7c0.3-0.5,0.6-0.9,0.8-1.2S7.3,2,7.5,1.9c0.2-0.2,0.3-0.2,0.3-0.2c0.1,0,0,0.2-0.1,0.5
		C7.5,2.5,7.3,2.9,7,3.3S6.4,4.2,6,4.7S5.2,5.8,4.8,6.3L5.2,5.5z"/>
	<path d="M38.1,42.1c-0.1-0.7-0.3-1.4-0.5-2.2c-0.3-0.7-0.6-1.4-1-2.1c-0.4-0.7-0.6-1.3-0.7-2s0.1-1.3,0.5-2
		c0.1-0.2,0.3-0.5,0.6-0.7c0.2-0.2,0.5-0.4,0.7-0.5c0.3-0.1,0.5-0.2,0.8-0.2s0.6,0,0.8,0.1c0.5,0.2,0.8,0.5,0.9,0.9s0.1,0.8-0.1,1.3
		c-0.1,0.3-0.2,0.6-0.4,0.8c-0.2,0.2-0.4,0.4-0.7,0.6c-0.3,0.1-0.5,0.2-0.8,0.3c-0.3,0-0.6,0-0.9-0.1c-0.1,0.3-0.2,0.6-0.1,0.8
		s0.2,0.4,0.4,0.6c0.3,0.2,0.6,0.3,1.1,0.3c0.4,0,0.8-0.1,1.1-0.2c0.4-0.2,0.8-0.5,1.1-0.9c0.3-0.4,0.6-0.9,0.7-1.5
		c0.1-0.4,0.1-0.9,0-1.3c-0.1-0.4-0.2-0.8-0.4-1.1c-0.2-0.3-0.5-0.6-0.8-0.8s-0.7-0.4-1.1-0.4c-0.7-0.1-1.3-0.1-1.8,0.1
		c-0.6,0.2-1,0.5-1.4,0.8c-0.4,0.4-0.7,0.8-1,1.4c-0.3,0.5-0.4,1.1-0.5,1.7c-0.1,0.6-0.1,1.2,0,1.8s0.3,1.1,0.6,1.6
		c0.3,0.5,0.6,1,0.9,1.5c0.2,0.6,0.4,1.1,0.5,1.7c0.1,0.6,0.1,1.2,0,1.7c-0.1,0.6-0.3,1.1-0.6,1.7c-0.3,0.5-0.7,1-1.3,1.3
		c-0.6,0.4-1.2,0.6-1.8,0.8c-0.6,0.1-1.3,0.1-1.9,0c-0.6-0.2-1.1-0.5-1.5-1.1c-0.3-0.4-0.4-0.9-0.4-1.4s0.1-1,0.2-1.4
		c0.2-0.4,0.4-0.8,0.6-1.2c0.3-0.3,0.5-0.6,0.8-0.9c0.5-0.4,1-0.7,1.6-0.9c0.5-0.2,1-0.2,1.5,0c0.4,0.2,0.7,0.1,0.8-0.1
		c0.1-0.2-0.1-0.6-0.6-1c-0.2-0.2-0.4-0.3-0.7-0.4c-0.3-0.1-0.7-0.2-1.1-0.2s-0.9,0.1-1.3,0.3c-0.5,0.2-0.9,0.5-1.3,0.9
		c-0.7,0.6-1.1,1.4-1.4,2.3c-0.3,0.9-0.3,1.7-0.2,2.6c0.1,0.8,0.5,1.6,1.1,2.3s1.3,1.1,2.3,1.3c0.5,0.1,1.1,0.2,1.6,0.1
		c0.5,0,1-0.2,1.5-0.3c0.5-0.2,1-0.4,1.4-0.7s0.8-0.7,1.1-1.1c0.5-0.7,0.9-1.4,1-2.1C38.2,43.5,38.2,42.8,38.1,42.1z"/>
	<path d="M52.7,46.2c0.1,0.1,0.2,0.2,0.3,0.2c0.5,0.2,0.9,0.2,1.3,0s0.8-0.5,1.2-0.9c0.4-0.4,0.8-0.9,1.1-1.4
		c0.3-0.5,0.6-1.1,0.9-1.5c0.2-0.4,0.4-0.9,0.5-1.3c0.1-0.4,0.2-0.8,0.2-1.2s0-0.7-0.1-0.9c-0.1-0.3-0.2-0.5-0.4-0.6
		c-0.3-0.2-0.6-0.2-1-0.1c-0.4,0.1-0.7,0.3-1.1,0.6l0.2-0.3H54l-1,2.1c-0.1,0.1-0.3,0.1-0.4,0.2c-0.3,0.1-0.7,0.2-1,0.2
		c0.1-0.5,0.1-0.9,0-1.3c-0.1-0.3-0.4-0.5-0.8-0.5c-0.3,0-0.6,0.1-0.8,0.3c-0.2,0.2-0.3,0.4-0.3,0.7s0,0.5,0.1,0.8s0.3,0.5,0.6,0.6
		l-0.2,0.5c-0.2,0.4-0.4,0.7-0.6,1.1c-0.2,0.4-0.5,0.7-0.7,0.9c-0.2,0.3-0.5,0.4-0.7,0.6c-0.2,0.1-0.4,0.1-0.6,0
		c-0.3-0.2-0.5-0.5-0.4-1c0-0.5,0.2-1.1,0.5-1.7c0.4-0.8,0.7-1.4,1.1-1.9s0.7-0.8,1-1s0.6-0.3,0.9-0.3s0.6,0.1,0.8,0.3
		c0-0.2-0.1-0.4-0.2-0.5c-0.1-0.2-0.3-0.3-0.4-0.3c-0.3-0.1-0.7-0.2-1.1-0.1c-0.4,0.1-0.8,0.3-1.3,0.6s-0.9,0.8-1.4,1.4
		c-0.5,0.6-0.9,1.3-1.3,2.2c-0.1,0.1-0.1,0.3-0.2,0.4c-0.3,0.5-0.6,1-0.8,1.4c-0.4,0.5-0.7,0.7-1,0.7c-0.1,0-0.1-0.1-0.1-0.2
		c0-0.1,0.1-0.3,0.2-0.6c0.2-0.3,0.4-0.8,0.7-1.3c0.3-0.6,0.7-1.3,1.3-2.3c0.2-0.3,0.3-0.5,0.3-0.8c0-0.2,0-0.5,0-0.6
		c-0.1-0.2-0.2-0.3-0.3-0.4c-0.1-0.1-0.3-0.2-0.5-0.2c-0.1,0-0.3,0-0.4,0.1c1.6-2,2.6-3.7,3.1-5s0.5-2.1,0-2.4
		c-0.3-0.2-0.7-0.2-1.2,0.1c-0.5,0.3-1,0.7-1.5,1.4c-0.6,0.6-1.2,1.5-1.8,2.4c-0.6,1-1.3,2.1-1.9,3.4c0,0-0.1,0.1-0.2,0.4
		c-0.1,0.2-0.3,0.5-0.4,0.9c-0.2,0.4-0.4,0.8-0.6,1.2c-0.2,0.5-0.4,0.9-0.7,1.4c-0.5,1.1-1.1,2.4-1.8,3.8h1.8l0.5-1
		c0.4-0.7,0.8-1.4,1.2-2c0.4-0.6,0.8-1.2,1.2-1.7c0.4-0.5,0.7-0.9,1-1.2s0.5-0.4,0.7-0.4s0.2,0.2,0,0.5c-0.1,0.3-0.4,0.7-0.7,1.2
		c-0.6,0.9-1,1.7-1.3,2.3S42,45.3,42,45.7s0.1,0.6,0.3,0.8c0.2,0.2,0.5,0.2,0.8,0.2c0.7,0,1.3-0.3,1.8-0.9c0.2-0.2,0.3-0.4,0.5-0.6
		l0,0c0.1,0.7,0.4,1.1,0.8,1.3s0.9,0.2,1.4,0.1c0.5-0.2,0.9-0.4,1.4-0.8c0.5-0.4,0.9-0.8,1.3-1.4c0.4-0.5,0.7-1.1,1-1.6
		c0-0.1,0.1-0.2,0.1-0.3c0.1-0.1,0.1-0.2,0.1-0.3c0.4,0,0.8-0.1,1.2-0.2h0.1l-3.7,7.9h1.8l3.2-6.7l0.1-0.1c0.2-0.4,0.4-0.8,0.6-1.2
		s0.5-0.8,0.8-1.1s0.5-0.6,0.7-0.8s0.4-0.3,0.5-0.2s0.1,0.2,0.1,0.4s-0.1,0.5-0.2,0.8s-0.2,0.6-0.4,1c-0.1,0.4-0.3,0.7-0.5,1
		c-0.2,0.4-0.4,0.8-0.6,1.1c-0.2,0.4-0.4,0.7-0.7,1c-0.2,0.3-0.4,0.5-0.6,0.6c-0.2,0.2-0.3,0.2-0.5,0.1c0,0-0.1,0-0.1-0.1
		c0,0,0,0-0.1-0.1l-0.1-0.1L52.7,46.2z M42.6,40.5l0.6-1.3c0.5-1,1-1.9,1.5-2.6c0.5-0.8,0.9-1.4,1.3-1.9s0.7-0.9,1-1.2
		s0.4-0.4,0.5-0.3c0.1,0.1,0,0.3-0.2,0.8s-0.6,1-1,1.7c-0.5,0.7-1,1.5-1.6,2.3C44,38.9,43.3,39.7,42.6,40.5z"/>
</g>
</svg>
